<svg width="120" height="120" viewBox="0 0 120 120" fill="none" xmlns="http://www.w3.org/2000/svg">
<ellipse cx="60" cy="46.83347" rx="14.3341" ry="14.3341" stroke="white" stroke-width="1.5" stroke-linecap="round" stroke-linejoin="round"/>
<path fill-rule="evenodd" clip-rule="evenodd" d="m37.27649,78.34372c-0.00385,-1.0077 0.22151,-2.003 0.65904,-2.9108c1.373,-2.746 5.24485,-4.2014 8.45771,-4.8604c2.317,-0.4945 4.6661,-0.8248 7.0297,-0.9886c4.376,-0.3843 8.7773,-0.3843 13.1533,0c2.3634,0.1657 4.7124,0.496 7.0298,0.9886c3.2128,0.659 7.0846,1.9771 8.4576,4.8604c0.8799,1.8504 0.8799,3.9986 0,5.849c-1.373,2.8833 -5.2448,4.2014 -8.4576,4.8329c-2.3144,0.515 -4.6643,0.8546 -7.0298,1.0161c-3.5617,0.3019 -7.14,0.3569 -10.7094,0.1647c-0.8238,0 -1.6201,0 -2.4439,-0.1647c-2.3566,-0.1595 -4.6975,-0.4992 -7.0023,-1.0161c-3.24026,-0.6315 -7.08466,-1.9496 -8.48511,-4.8329c-0.4353,-0.9183 -0.66043,-1.922 -0.65904,-2.9382z" stroke="white" stroke-width="1.5" stroke-linecap="round" stroke-linejoin="round"/>
</svg>
